STARTFONT 2.1
COMMENT
COMMENT Converted from OpenType font "arial.ttf" by "otf2bdf 3.0".
COMMENT
FONT -FreeType-Arial-Medium-R-Normal--22-160-100-100-P-108-ISO10646-1
SIZE 16 100 100
FONTBOUNDINGBOX 22 25 -1 -5
STARTPROPERTIES 19
FOUNDRY "FreeType"
FAMILY_NAME "Arial"
WEIGHT_NAME "Medium"
SLANT "R"
SETWIDTH_NAME "Normal"
ADD_STYLE_NAME ""
PIXEL_SIZE 22
POINT_SIZE 160
RESOLUTION_X 100
RESOLUTION_Y 100
SPACING "P"
AVERAGE_WIDTH 108
CHARSET_REGISTRY "ISO10646"
CHARSET_ENCODING "1"
FONT_ASCENT 19
FONT_DESCENT 4
COPYRIGHT "© 2017 The Monotype Corporation. All Rights Reserved.     Hebrew OpenType Layout logic copyright © 2003 & 2007, Ralph Hancock & John Hudson. This layout logic for Biblical Hebrew is open source software under the MIT License; see embedded license description for details."
_OTF_FONTFILE "arial.ttf"
_OTF_PSNAME "ArialMT"
ENDPROPERTIES
CHARS 169
STARTCHAR 0020
ENCODING 32
SWIDTH 270 0
DWIDTH 6 0
BBX 0 0 0 0
BITMAP
ENDCHAR
STARTCHAR 0021
ENCODING 33
SWIDTH 270 0
DWIDTH 6 0
BBX 2 16 2 0
BITMAP
C0
C0
C0
C0
C0
C0
C0
C0
C0
C0
C0
C0
00
00
C0
C0
ENDCHAR
STARTCHAR 0022
ENCODING 34
SWIDTH 315 0
DWIDTH 7 0
BBX 6 6 1 10
BITMAP
CC
CC
CC
CC
CC
48
ENDCHAR
STARTCHAR 0023
ENCODING 35
SWIDTH 540 0
DWIDTH 12 0
BBX 12 16 0 0
BITMAP
0C60
0C60
0C60
0840
FFF0
FFF0
18C0
18C0
1080
3080
FFF0
FFF0
3180
2100
6100
6300
ENDCHAR
STARTCHAR 0024
ENCODING 36
SWIDTH 540 0
DWIDTH 12 0
BBX 10 19 1 -2
BITMAP
0400
3F00
7580
C4C0
C4C0
C400
E400
7400
3F00
0780
05C0
04C0
C4C0
C4C0
E4C0
7780
3F00
0400
0400
ENDCHAR
STARTCHAR 0025
ENCODING 37
SWIDTH 855 0
DWIDTH 19 0
BBX 17 17 1 -1
BITMAP
3C0C00
660800
C61800
C63000
C63000
C66000
666000
3CC000
008E00
019F80
011980
031080
021080
061080
041980
0C0F00
080600
ENDCHAR
STARTCHAR 0026
ENCODING 38
SWIDTH 630 0
DWIDTH 14 0
BBX 13 16 1 0
BITMAP
0F00
1B80
31C0
30C0
3180
1B80
1F00
1E00
7700
6330
C1B0
C1E0
C0E0
E0F0
73B8
3F18
ENDCHAR
STARTCHAR 0027
ENCODING 39
SWIDTH 180 0
DWIDTH 4 0
BBX 2 6 1 10
BITMAP
C0
C0
C0
C0
C0
C0
ENDCHAR
STARTCHAR 0028
ENCODING 40
SWIDTH 315 0
DWIDTH 7 0
BBX 5 21 1 -5
BITMAP
08
18
30
30
60
60
60
60
C0
C0
C0
C0
60
60
60
60
30
30
10
18
08
ENDCHAR
STARTCHAR 0029
ENCODING 41
SWIDTH 315 0
DWIDTH 7 0
BBX 6 21 1 -5
BITMAP
40
60
20
30
10
18
18
18
08
0C
0C
0C
18
18
18
18
30
30
20
60
C0
ENDCHAR
STARTCHAR 002A
ENCODING 42
SWIDTH 360 0
DWIDTH 8 0
BBX 7 6 1 9
BITMAP
10
10
FE
38
38
6C
ENDCHAR
STARTCHAR 002B
ENCODING 43
SWIDTH 540 0
DWIDTH 12 0
BBX 11 10 1 3
BITMAP
0400
0400
0400
0400
FFE0
FFE0
0400
0400
0400
0400
ENDCHAR
STARTCHAR 002C
ENCODING 44
SWIDTH 270 0
DWIDTH 6 0
BBX 2 5 2 -3
BITMAP
C0
C0
40
40
80
ENDCHAR
STARTCHAR 002D
ENCODING 45
SWIDTH 315 0
DWIDTH 7 0
BBX 6 2 1 5
BITMAP
FC
FC
ENDCHAR
STARTCHAR 002E
ENCODING 46
SWIDTH 270 0
DWIDTH 6 0
BBX 2 2 2 0
BITMAP
C0
C0
ENDCHAR
STARTCHAR 002F
ENCODING 47
SWIDTH 270 0
DWIDTH 6 0
BBX 6 16 0 0
BITMAP
0C
0C
08
08
18
18
10
30
30
20
20
60
60
40
C0
C0
ENDCHAR
STARTCHAR 0030
ENCODING 48
SWIDTH 540 0
DWIDTH 12 0
BBX 10 16 1 0
BITMAP
1E00
3F80
6180
60C0
C0C0
C0C0
C0C0
C0C0
C0C0
C0C0
C0C0
C0C0
C0C0
6180
7380
3F00
ENDCHAR
STARTCHAR 0031
ENCODING 49
SWIDTH 540 0
DWIDTH 12 0
BBX 6 16 2 0
BITMAP
04
0C
1C
7C
EC
8C
0C
0C
0C
0C
0C
0C
0C
0C
0C
0C
ENDCHAR
STARTCHAR 0032
ENCODING 50
SWIDTH 540 0
DWIDTH 12 0
BBX 10 16 1 0
BITMAP
1F00
7F80
61C0
C0C0
C0C0
00C0
01C0
0180
0300
0E00
1C00
3800
7000
E000
FFC0
FFC0
ENDCHAR
STARTCHAR 0033
ENCODING 51
SWIDTH 540 0
DWIDTH 12 0
BBX 10 16 1 0
BITMAP
1E00
7F80
6180
C1C0
00C0
0180
0380
0F00
0380
00C0
00C0
00C0
C0C0
E0C0
7380
3F00
ENDCHAR
STARTCHAR 0034
ENCODING 52
SWIDTH 540 0
DWIDTH 12 0
BBX 11 16 0 0
BITMAP
0180
0180
0380
0780
0D80
0D80
1980
3180
3180
6180
FFE0
FFE0
0180
0180
0180
0180
ENDCHAR
STARTCHAR 0035
ENCODING 53
SWIDTH 540 0
DWIDTH 12 0
BBX 10 16 1 0
BITMAP
3FC0
3FC0
6000
6000
6000
6400
7F80
F1C0
C0C0
00C0
00C0
00C0
C0C0
E0C0
7380
3F00
ENDCHAR
STARTCHAR 0036
ENCODING 54
SWIDTH 540 0
DWIDTH 12 0
BBX 10 16 1 0
BITMAP
1F00
3F80
61C0
60C0
C000
C000
DF00
F380
E0C0
C0C0
C0C0
C0C0
C0C0
60C0
7380
1F00
ENDCHAR
STARTCHAR 0037
ENCODING 55
SWIDTH 540 0
DWIDTH 12 0
BBX 10 16 1 0
BITMAP
FFC0
FFC0
00C0
0180
0300
0300
0600
0E00
0C00
0C00
1800
1800
1800
1800
3000
3000
ENDCHAR
STARTCHAR 0038
ENCODING 56
SWIDTH 540 0
DWIDTH 12 0
BBX 10 16 1 0
BITMAP
1E00
3F80
6180
60C0
60C0
6180
7380
1F00
7180
C0C0
C0C0
C0C0
C0C0
E0C0
7380
3F00
ENDCHAR
STARTCHAR 0039
ENCODING 57
SWIDTH 540 0
DWIDTH 12 0
BBX 10 16 1 0
BITMAP
1E00
7F80
6180
C0C0
C0C0
C0C0
C0C0
C0C0
71C0
3FC0
0CC0
00C0
C0C0
E180
7380
3E00
ENDCHAR
STARTCHAR 003A
ENCODING 58
SWIDTH 270 0
DWIDTH 6 0
BBX 2 12 2 0
BITMAP
C0
C0
C0
00
00
00
00
00
00
00
C0
C0
ENDCHAR
STARTCHAR 003B
ENCODING 59
SWIDTH 270 0
DWIDTH 6 0
BBX 2 15 2 -3
BITMAP
C0
C0
C0
00
00
00
00
00
00
00
C0
C0
40
40
80
ENDCHAR
STARTCHAR 003C
ENCODING 60
SWIDTH 540 0
DWIDTH 12 0
BBX 11 10 1 2
BITMAP
0060
01E0
0F80
3C00
F000
E000
7C00
0F00
03C0
00E0
ENDCHAR
STARTCHAR 003D
ENCODING 61
SWIDTH 540 0
DWIDTH 12 0
BBX 11 6 1 5
BITMAP
FFE0
FFE0
0000
0000
0000
FFE0
ENDCHAR
STARTCHAR 003E
ENCODING 62
SWIDTH 540 0
DWIDTH 12 0
BBX 11 10 1 2
BITMAP
C000
F000
3E00
0780
01E0
00E0
07C0
1E00
F800
E000
ENDCHAR
STARTCHAR 003F
ENCODING 63
SWIDTH 540 0
DWIDTH 12 0
BBX 10 16 1 0
BITMAP
3F00
7380
E0C0
C0C0
40C0
00C0
0180
0380
0700
0E00
0C00
0C00
0000
0000
0C00
0C00
ENDCHAR
STARTCHAR 0040
ENCODING 64
SWIDTH 990 0
DWIDTH 22 0
BBX 20 21 1 -5
BITMAP
01FE00
078F80
0C01C0
180060
306060
61FE30
630E30
470E10
C60610
C60430
CC0C30
CC0C30
CC0C60
C61CC0
67EF80
63CF00
300030
180070
0E01C0
07FF80
007C00
ENDCHAR
STARTCHAR 0041
ENCODING 65
SWIDTH 630 0
DWIDTH 14 0
BBX 15 16 0 0
BITMAP
0380
0380
0780
06C0
0CC0
0CE0
0C60
1860
1830
3FF0
3FF8
3018
6018
601C
600C
C00E
ENDCHAR
STARTCHAR 0042
ENCODING 66
SWIDTH 630 0
DWIDTH 14 0
BBX 12 16 2 0
BITMAP
FF00
FFC0
C0C0
C060
C060
C060
C1C0
FF80
FFC0
C060
C070
C070
C070
C060
FFC0
FF80
ENDCHAR
STARTCHAR 0043
ENCODING 67
SWIDTH 720 0
DWIDTH 16 0
BBX 14 16 1 0
BITMAP
0FE0
1FF0
3838
601C
600C
E000
C000
C000
C000
C000
E000
600C
601C
3038
3FF0
0FE0
ENDCHAR
STARTCHAR 0044
ENCODING 68
SWIDTH 720 0
DWIDTH 16 0
BBX 13 16 2 0
BITMAP
FF80
FFC0
C0E0
C070
C030
C038
C018
C018
C018
C018
C038
C030
C030
C0E0
FFC0
FF80
ENDCHAR
STARTCHAR 0045
ENCODING 69
SWIDTH 630 0
DWIDTH 14 0
BBX 12 16 2 0
BITMAP
FFE0
FFE0
C000
C000
C000
C000
C000
FFE0
FFE0
C000
C000
C000
C000
C000
FFF0
FFF0
ENDCHAR
STARTCHAR 0046
ENCODING 70
SWIDTH 585 0
DWIDTH 13 0
BBX 11 16 2 0
BITMAP
FFE0
FFE0
C000
C000
C000
C000
C000
FF80
FF80
C000
C000
C000
C000
C000
C000
C000
ENDCHAR
STARTCHAR 0047
ENCODING 71
SWIDTH 765 0
DWIDTH 17 0
BBX 15 16 1 0
BITMAP
07F0
1FF8
381C
700C
6006
6000
C000
C000
C0FE
C0FE
E006
6006
7006
380E
1FFC
07F0
ENDCHAR
STARTCHAR 0048
ENCODING 72
SWIDTH 720 0
DWIDTH 16 0
BBX 12 16 2 0
BITMAP
C030
C030
C030
C030
C030
C030
C030
FFF0
C030
C030
C030
C030
C030
C030
C030
C030
ENDCHAR
STARTCHAR 0049
ENCODING 73
SWIDTH 270 0
DWIDTH 6 0
BBX 2 16 2 0
BITMAP
C0
C0
C0
C0
C0
C0
C0
C0
C0
C0
C0
C0
C0
C0
C0
C0
ENDCHAR
STARTCHAR 004A
ENCODING 74
SWIDTH 495 0
DWIDTH 11 0
BBX 8 16 1 0
BITMAP
03
03
03
03
03
03
03
03
03
03
03
C3
C3
C3
FF
7E
ENDCHAR
STARTCHAR 004B
ENCODING 75
SWIDTH 630 0
DWIDTH 14 0
BBX 12 16 2 0
BITMAP
C070
C0E0
C1C0
C380
C700
CE00
DC00
FE00
F600
E700
C380
C180
C0C0
C0E0
C070
C030
ENDCHAR
STARTCHAR 004C
ENCODING 76
SWIDTH 540 0
DWIDTH 12 0
BBX 10 16 2 0
BITMAP
C000
C000
C000
C000
C000
C000
C000
C000
C000
C000
C000
C000
C000
C000
FFC0
FFC0
ENDCHAR
STARTCHAR 004D
ENCODING 77
SWIDTH 810 0
DWIDTH 18 0
BBX 15 16 2 0
BITMAP
E00E
E00E
F01E
F01E
F036
D836
D826
D866
CC66
CC46
CCC6
C6C6
C686
C786
C386
C306
ENDCHAR
STARTCHAR 004E
ENCODING 78
SWIDTH 720 0
DWIDTH 16 0
BBX 12 16 2 0
BITMAP
C030
E030
E030
F030
F830
D830
CC30
CE30
C630
C330
C3B0
C1B0
C0F0
C0F0
C070
C030
ENDCHAR
STARTCHAR 004F
ENCODING 79
SWIDTH 765 0
DWIDTH 17 0
BBX 15 16 1 0
BITMAP
0FE0
1FF8
381C
700C
600E
E006
C006
C006
C006
C006
E006
600E
700C
381C
1FF8
0FE0
ENDCHAR
STARTCHAR 0050
ENCODING 80
SWIDTH 630 0
DWIDTH 14 0
BBX 12 16 2 0
BITMAP
FF80
FFE0
C060
C070
C030
C030
C070
C0E0
FFC0
FE00
C000
C000
C000
C000
C000
C000
ENDCHAR
STARTCHAR 0051
ENCODING 81
SWIDTH 765 0
DWIDTH 17 0
BBX 15 17 1 -1
BITMAP
0FE0
1FF0
3818
600C
600E
C006
C006
C006
C006
C006
C006
600E
60CC
3078
1FF8
0FEE
0006
ENDCHAR
STARTCHAR 0052
ENCODING 82
SWIDTH 720 0
DWIDTH 16 0
BBX 13 16 2 0
BITMAP
FFC0
FFE0
C070
C030
C030
C030
C070
FFE0
FF80
C180
C1C0
C0E0
C070
C030
C038
C018
ENDCHAR
STARTCHAR 0053
ENCODING 83
SWIDTH 630 0
DWIDTH 14 0
BBX 13 16 1 0
BITMAP
1FC0
3FE0
6070
6030
6030
6000
7C00
1FC0
07E0
0070
0038
C018
E038
6030
7FE0
1FC0
ENDCHAR
STARTCHAR 0054
ENCODING 84
SWIDTH 585 0
DWIDTH 13 0
BBX 12 16 1 0
BITMAP
FFF0
FFF0
0600
0600
0600
0600
0600
0600
0600
0600
0600
0600
0600
0600
0600
0600
ENDCHAR
STARTCHAR 0055
ENCODING 85
SWIDTH 720 0
DWIDTH 16 0
BBX 12 16 2 0
BITMAP
C030
C030
C030
C030
C030
C030
C030
C030
C030
C030
C030
C030
C030
E070
7FE0
3FC0
ENDCHAR
STARTCHAR 0056
ENCODING 86
SWIDTH 630 0
DWIDTH 14 0
BBX 14 16 0 0
BITMAP
E00C
600C
600C
7018
3018
3038
1830
1830
1860
0C60
0C60
04C0
06C0
0680
0380
0380
ENDCHAR
STARTCHAR 0057
ENCODING 87
SWIDTH 900 0
DWIDTH 20 0
BBX 21 16 0 0
BITMAP
E07018
607030
605030
60D830
60D830
30D860
318C60
318C60
318C40
1904C0
1B06C0
1B06C0
0B0680
0A0380
0E0380
0E0300
ENDCHAR
STARTCHAR 0058
ENCODING 88
SWIDTH 630 0
DWIDTH 14 0
BBX 14 16 0 0
BITMAP
700C
3018
1830
1C70
0C60
06C0
0780
0380
0380
06C0
0EE0
1C60
1830
3038
701C
E00C
ENDCHAR
STARTCHAR 0059
ENCODING 89
SWIDTH 630 0
DWIDTH 14 0
BBX 14 16 0 0
BITMAP
E00C
701C
3018
3830
1C70
0C60
0EC0
07C0
0380
0300
0300
0300
0300
0300
0300
0300
ENDCHAR
STARTCHAR 005A
ENCODING 90
SWIDTH 585 0
DWIDTH 13 0
BBX 13 16 0 0
BITMAP
7FF8
7FF8
0030
0070
00E0
01C0
0380
0300
0600
0E00
1C00
3800
3000
6000
FFF8
FFF8
ENDCHAR
STARTCHAR 005B
ENCODING 91
SWIDTH 270 0
DWIDTH 6 0
BBX 4 20 2 -4
BITMAP
F0
F0
80
80
80
80
80
80
80
80
80
80
80
80
80
80
80
80
80
F0
ENDCHAR
STARTCHAR 005C
ENCODING 92
SWIDTH 270 0
DWIDTH 6 0
BBX 6 16 0 0
BITMAP
C0
C0
40
60
60
20
20
30
30
10
18
18
08
08
0C
0C
ENDCHAR
STARTCHAR 005D
ENCODING 93
SWIDTH 270 0
DWIDTH 6 0
BBX 5 20 0 -4
BITMAP
F8
F8
18
18
18
18
18
18
18
18
18
18
18
18
18
18
18
18
18
F8
ENDCHAR
STARTCHAR 005E
ENCODING 94
SWIDTH 450 0
DWIDTH 10 0
BBX 9 9 1 7
BITMAP
1800
1C00
3C00
3600
6600
6300
C300
C300
C180
ENDCHAR
STARTCHAR 005F
ENCODING 95
SWIDTH 540 0
DWIDTH 12 0
BBX 13 1 0 -4
BITMAP
FFF8
ENDCHAR
STARTCHAR 0060
ENCODING 96
SWIDTH 315 0
DWIDTH 7 0
BBX 4 3 1 13
BITMAP
E0
60
30
ENDCHAR
STARTCHAR 0061
ENCODING 97
SWIDTH 540 0
DWIDTH 12 0
BBX 10 12 1 0
BITMAP
1F00
7F80
61C0
C0C0
00C0
1FC0
7EC0
E0C0
C0C0
C1C0
E3C0
7EC0
ENDCHAR
STARTCHAR 0062
ENCODING 98
SWIDTH 540 0
DWIDTH 12 0
BBX 10 16 1 0
BITMAP
C000
C000
C000
C000
CE00
DF80
F1C0
E0C0
C0C0
C0C0
C0C0
C0C0
E0C0
E0C0
F380
DF00
ENDCHAR
STARTCHAR 0063
ENCODING 99
SWIDTH 495 0
DWIDTH 11 0
BBX 10 12 1 0
BITMAP
1E00
3F80
6180
C0C0
C000
C000
C000
C000
C0C0
E180
7380
3F00
ENDCHAR
STARTCHAR 0064
ENCODING 100
SWIDTH 540 0
DWIDTH 12 0
BBX 10 16 1 0
BITMAP
00C0
00C0
00C0
00C0
1CC0
7FC0
61C0
C1C0
C0C0
C0C0
C0C0
C0C0
C0C0
E1C0
73C0
3EC0
ENDCHAR
STARTCHAR 0065
ENCODING 101
SWIDTH 540 0
DWIDTH 12 0
BBX 10 12 1 0
BITMAP
1E00
3F80
61C0
C0C0
C0C0
FFC0
FFC0
C000
C0C0
E0C0
7380
3F00
ENDCHAR
STARTCHAR 0066
ENCODING 102
SWIDTH 270 0
DWIDTH 6 0
BBX 7 16 0 0
BITMAP
1E
3E
30
30
FC
FC
30
30
30
30
30
30
30
30
30
30
ENDCHAR
STARTCHAR 0067
ENCODING 103
SWIDTH 540 0
DWIDTH 12 0
BBX 10 17 1 -5
BITMAP
1CC0
7FC0
61C0
C0C0
C0C0
C0C0
C0C0
C0C0
C0C0
61C0
7FC0
3EC0
00C0
C0C0
E180
7F00
1C00
ENDCHAR
STARTCHAR 0068
ENCODING 104
SWIDTH 540 0
DWIDTH 12 0
BBX 10 16 1 0
BITMAP
C000
C000
C000
C000
CF00
DF80
F1C0
E0C0
E0C0
C0C0
C0C0
C0C0
C0C0
C0C0
C0C0
C0C0
ENDCHAR
STARTCHAR 0069
ENCODING 105
SWIDTH 180 0
DWIDTH 4 0
BBX 2 16 1 0
BITMAP
C0
C0
00
00
C0
C0
C0
C0
C0
C0
C0
C0
C0
C0
C0
C0
ENDCHAR
STARTCHAR 006A
ENCODING 106
SWIDTH 180 0
DWIDTH 4 0
BBX 4 21 -1 -5
BITMAP
30
30
00
00
30
30
30
30
30
30
30
30
30
30
30
30
30
30
30
F0
E0
ENDCHAR
STARTCHAR 006B
ENCODING 107
SWIDTH 495 0
DWIDTH 11 0
BBX 10 16 1 0
BITMAP
C000
C000
C000
C000
C1C0
C380
C600
CC00
D800
FC00
EC00
C600
C700
C300
C180
C1C0
ENDCHAR
STARTCHAR 006C
ENCODING 108
SWIDTH 180 0
DWIDTH 4 0
BBX 2 16 1 0
BITMAP
C0
C0
C0
C0
C0
C0
C0
C0
C0
C0
C0
C0
C0
C0
C0
C0
ENDCHAR
STARTCHAR 006D
ENCODING 109
SWIDTH 810 0
DWIDTH 18 0
BBX 16 12 1 0
BITMAP
CE1C
DFBE
F1C3
E1C3
E183
C183
C183
C183
C183
C183
C183
C183
ENDCHAR
STARTCHAR 006E
ENCODING 110
SWIDTH 540 0
DWIDTH 12 0
BBX 10 12 1 0
BITMAP
CF00
DF80
F1C0
E0C0
E0C0
C0C0
C0C0
C0C0
C0C0
C0C0
C0C0
C0C0
ENDCHAR
STARTCHAR 006F
ENCODING 111
SWIDTH 540 0
DWIDTH 12 0
BBX 11 12 1 0
BITMAP
1E00
3F80
61C0
C0C0
C0C0
C060
C060
C0C0
C0C0
E0C0
7380
3F00
ENDCHAR
STARTCHAR 0070
ENCODING 112
SWIDTH 540 0
DWIDTH 12 0
BBX 10 16 1 -4
BITMAP
CE00
DF80
F1C0
E0C0
C0C0
C0C0
C0C0
C0C0
E0C0
E0C0
F380
DF00
C000
C000
C000
C000
ENDCHAR
STARTCHAR 0071
ENCODING 113
SWIDTH 540 0
DWIDTH 12 0
BBX 10 16 1 -4
BITMAP
1CC0
7FC0
61C0
C1C0
C0C0
C0C0
C0C0
C0C0
C0C0
E1C0
73C0
3EC0
00C0
00C0
00C0
00C0
ENDCHAR
STARTCHAR 0072
ENCODING 114
SWIDTH 315 0
DWIDTH 7 0
BBX 6 12 1 0
BITMAP
CC
DC
F0
E0
E0
C0
C0
C0
C0
C0
C0
C0
ENDCHAR
STARTCHAR 0073
ENCODING 115
SWIDTH 495 0
DWIDTH 11 0
BBX 9 12 1 0
BITMAP
3C00
7F00
C380
C100
E000
7C00
1F00
0380
C180
C180
E380
7F00
ENDCHAR
STARTCHAR 0074
ENCODING 116
SWIDTH 270 0
DWIDTH 6 0
BBX 6 15 0 1
BITMAP
30
30
30
FC
FC
30
30
30
30
30
30
30
30
3C
3C
ENDCHAR
STARTCHAR 0075
ENCODING 117
SWIDTH 540 0
DWIDTH 12 0
BBX 10 12 1 0
BITMAP
C0C0
C0C0
C0C0
C0C0
C0C0
C0C0
C0C0
C0C0
C0C0
61C0
77C0
3EC0
ENDCHAR
STARTCHAR 0076
ENCODING 118
SWIDTH 495 0
DWIDTH 11 0
BBX 11 12 0 0
BITMAP
C060
60C0
60C0
60C0
3180
3180
1180
1B00
1B00
0E00
0E00
0E00
ENDCHAR
STARTCHAR 0077
ENCODING 119
SWIDTH 720 0
DWIDTH 16 0
BBX 16 12 0 0
BITMAP
C183
C183
63C6
63C6
63C6
224C
366C
366C
1668
1C38
1C38
1C30
ENDCHAR
STARTCHAR 0078
ENCODING 120
SWIDTH 495 0
DWIDTH 11 0
BBX 11 12 0 0
BITMAP
E0E0
70C0
3180
1B00
1F00
0E00
0E00
1F00
1B00
3180
70C0
60E0
ENDCHAR
STARTCHAR 0079
ENCODING 121
SWIDTH 495 0
DWIDTH 11 0
BBX 11 17 0 -5
BITMAP
C060
6060
60C0
30C0
3180
3180
1980
1B00
1B00
0F00
0E00
0600
0400
0C00
1C00
7800
3000
ENDCHAR
STARTCHAR 007A
ENCODING 122
SWIDTH 495 0
DWIDTH 11 0
BBX 11 12 0 0
BITMAP
7FC0
7FC0
01C0
0380
0300
0600
0C00
1800
3800
7000
FFE0
FFE0
ENDCHAR
STARTCHAR 007B
ENCODING 123
SWIDTH 315 0
DWIDTH 7 0
BBX 6 21 1 -5
BITMAP
1C
3C
30
30
30
30
30
30
60
E0
C0
60
20
30
30
30
30
30
30
3C
0C
ENDCHAR
STARTCHAR 007C
ENCODING 124
SWIDTH 225 0
DWIDTH 5 0
BBX 2 21 2 -5
BITMAP
C0
C0
C0
C0
C0
C0
C0
C0
C0
C0
C0
C0
C0
C0
C0
C0
C0
C0
C0
C0
C0
ENDCHAR
STARTCHAR 007D
ENCODING 125
SWIDTH 315 0
DWIDTH 7 0
BBX 6 21 1 -5
BITMAP
E0
E0
20
30
30
30
30
30
30
1C
1C
38
30
30
30
30
30
20
60
E0
C0
ENDCHAR
STARTCHAR 007E
ENCODING 126
SWIDTH 540 0
DWIDTH 12 0
BBX 11 4 1 6
BITMAP
3000
FE20
DFE0
03C0
ENDCHAR
STARTCHAR 00C0
ENCODING 192
SWIDTH 630 0
DWIDTH 14 0
BBX 15 20 0 0
BITMAP
0700
0300
0180
0000
0380
0380
0780
06C0
0CC0
0CE0
0C60
1860
1830
3FF0
3FF8
3018
6018
601C
600C
C00E
ENDCHAR
STARTCHAR 00C1
ENCODING 193
SWIDTH 630 0
DWIDTH 14 0
BBX 15 20 0 0
BITMAP
01C0
0180
0300
0000
0380
0380
0780
06C0
0CC0
0CE0
0C60
1860
1830
3FF0
3FF8
3018
6018
601C
600C
C00E
ENDCHAR
STARTCHAR 00C2
ENCODING 194
SWIDTH 630 0
DWIDTH 14 0
BBX 15 20 0 0
BITMAP
0300
0780
0CC0
0000
0380
0380
0780
06C0
0CC0
0CE0
0C60
1860
1830
3FF0
3FF8
3018
6018
601C
600C
C00E
ENDCHAR
STARTCHAR 00C3
ENCODING 195
SWIDTH 630 0
DWIDTH 14 0
BBX 15 19 0 0
BITMAP
0F60
09C0
0000
0380
0380
0780
06C0
0CC0
0CE0
0C60
1860
1830
3FF0
3FF8
3018
6018
601C
600C
C00E
ENDCHAR
STARTCHAR 00C4
ENCODING 196
SWIDTH 630 0
DWIDTH 14 0
BBX 15 19 0 0
BITMAP
0CC0
0CC0
0000
0380
0380
0780
06C0
0CC0
0CE0
0C60
1860
1830
3FF0
3FF8
3018
6018
601C
600C
C00E
ENDCHAR
STARTCHAR 00C5
ENCODING 197
SWIDTH 630 0
DWIDTH 14 0
BBX 15 19 0 0
BITMAP
0380
0480
0480
0380
0380
0780
06C0
0CC0
0CE0
0C60
1860
1830
3FF0
3FF8
3018
6018
601C
600C
C00E
ENDCHAR
STARTCHAR 00C6
ENCODING 198
SWIDTH 990 0
DWIDTH 22 0
BBX 21 16 0 0
BITMAP
01FFF8
01FFF8
019800
031800
031800
061800
061800
0C1FF0
0C1FF0
181800
1FF800
301800
301800
601800
601FF8
E01FF8
ENDCHAR
STARTCHAR 00C7
ENCODING 199
SWIDTH 720 0
DWIDTH 16 0
BBX 14 21 1 -5
BITMAP
0FE0
1FF0
3838
601C
600C
E000
C000
C000
C000
C000
E000
600C
601C
3038
3FF0
0FE0
0300
0380
0180
0780
0600
ENDCHAR
STARTCHAR 00C8
ENCODING 200
SWIDTH 630 0
DWIDTH 14 0
BBX 12 20 2 0
BITMAP
1C00
0C00
0600
0000
FFE0
FFE0
C000
C000
C000
C000
C000
FFE0
FFE0
C000
C000
C000
C000
C000
FFF0
FFF0
ENDCHAR
STARTCHAR 00C9
ENCODING 201
SWIDTH 630 0
DWIDTH 14 0
BBX 12 20 2 0
BITMAP
0700
0600
0C00
0000
FFE0
FFE0
C000
C000
C000
C000
C000
FFE0
FFE0
C000
C000
C000
C000
C000
FFF0
FFF0
ENDCHAR
STARTCHAR 00CA
ENCODING 202
SWIDTH 630 0
DWIDTH 14 0
BBX 12 20 2 0
BITMAP
0E00
1F00
1B80
0000
FFE0
FFE0
C000
C000
C000
C000
C000
FFE0
FFE0
C000
C000
C000
C000
C000
FFF0
FFF0
ENDCHAR
STARTCHAR 00CB
ENCODING 203
SWIDTH 630 0
DWIDTH 14 0
BBX 12 19 2 0
BITMAP
1980
1980
0000
FFE0
FFE0
C000
C000
C000
C000
C000
FFE0
FFE0
C000
C000
C000
C000
C000
FFF0
FFF0
ENDCHAR
STARTCHAR 00CC
ENCODING 204
SWIDTH 270 0
DWIDTH 6 0
BBX 3 20 1 0
BITMAP
C0
60
20
00
60
60
60
60
60
60
60
60
60
60
60
60
60
60
60
60
ENDCHAR
STARTCHAR 00CD
ENCODING 205
SWIDTH 270 0
DWIDTH 6 0
BBX 3 20 2 0
BITMAP
60
C0
C0
00
C0
C0
C0
C0
C0
C0
C0
C0
C0
C0
C0
C0
C0
C0
C0
C0
ENDCHAR
STARTCHAR 00CE
ENCODING 206
SWIDTH 270 0
DWIDTH 6 0
BBX 6 20 0 0
BITMAP
30
78
CC
00
30
30
30
30
30
30
30
30
30
30
30
30
30
30
30
30
ENDCHAR
STARTCHAR 00CF
ENCODING 207
SWIDTH 270 0
DWIDTH 6 0
BBX 6 19 0 0
BITMAP
CC
CC
00
30
30
30
30
30
30
30
30
30
30
30
30
30
30
30
30
ENDCHAR
STARTCHAR 00D0
ENCODING 208
SWIDTH 720 0
DWIDTH 16 0
BBX 15 16 0 0
BITMAP
3FE0
3FF0
3038
301C
300C
300E
3006
FF06
FF06
3006
300E
300C
300C
3038
3FF0
3FE0
ENDCHAR
STARTCHAR 00D1
ENCODING 209
SWIDTH 720 0
DWIDTH 16 0
BBX 12 19 2 0
BITMAP
1EC0
1380
0000
C030
E030
E030
F030
F830
D830
CC30
CE30
C630
C330
C3B0
C1B0
C0F0
C0F0
C070
C030
ENDCHAR
STARTCHAR 00D2
ENCODING 210
SWIDTH 765 0
DWIDTH 17 0
BBX 15 20 1 0
BITMAP
0700
0300
0180
0000
0FE0
1FF8
381C
700C
600E
E006
C006
C006
C006
C006
E006
600E
700C
381C
1FF8
0FE0
ENDCHAR
STARTCHAR 00D3
ENCODING 211
SWIDTH 765 0
DWIDTH 17 0
BBX 15 20 1 0
BITMAP
00C0
0180
0100
0000
0FE0
1FF8
381C
700C
600E
E006
C006
C006
C006
C006
E006
600E
700C
381C
1FF8
0FE0
ENDCHAR
STARTCHAR 00D4
ENCODING 212
SWIDTH 765 0
DWIDTH 17 0
BBX 15 20 1 0
BITMAP
0380
07C0
06E0
0000
0FE0
1FF8
381C
700C
600E
E006
C006
C006
C006
C006
E006
600E
700C
381C
1FF8
0FE0
ENDCHAR
STARTCHAR 00D5
ENCODING 213
SWIDTH 765 0
DWIDTH 17 0
BBX 15 19 1 0
BITMAP
07E0
0DE0
0000
0FE0
1FF8
381C
700C
600E
E006
C006
C006
C006
C006
E006
600E
700C
381C
1FF8
0FE0
ENDCHAR
STARTCHAR 00D6
ENCODING 214
SWIDTH 765 0
DWIDTH 17 0
BBX 15 19 1 0
BITMAP
0660
0660
0000
0FE0
1FF8
381C
700C
600E
E006
C006
C006
C006
C006
E006
600E
700C
381C
1FF8
0FE0
ENDCHAR
STARTCHAR 00D7
ENCODING 215
SWIDTH 540 0
DWIDTH 12 0
BBX 9 8 2 4
BITMAP
C180
6300
3600
1C00
1C00
3600
6300
C180
ENDCHAR
STARTCHAR 00D8
ENCODING 216
SWIDTH 765 0
DWIDTH 17 0
BBX 15 16 1 -1
BITMAP
0FE2
1FF4
381C
701C
603E
E066
C0C6
C186
C306
C606
C406
6C0E
780C
381C
7FF8
CFE0
ENDCHAR
STARTCHAR 00D9
ENCODING 217
SWIDTH 720 0
DWIDTH 16 0
BBX 12 20 2 0
BITMAP
0C00
0C00
0600
0000
C030
C030
C030
C030
C030
C030
C030
C030
C030
C030
C030
C030
C030
E070
7FE0
3FC0
ENDCHAR
STARTCHAR 00DA
ENCODING 218
SWIDTH 720 0
DWIDTH 16 0
BBX 12 20 2 0
BITMAP
0300
0700
0600
0000
C030
C030
C030
C030
C030
C030
C030
C030
C030
C030
C030
C030
C030
E070
7FE0
3FC0
ENDCHAR
STARTCHAR 00DB
ENCODING 219
SWIDTH 720 0
DWIDTH 16 0
BBX 12 20 2 0
BITMAP
0600
0F00
1980
0000
C030
C030
C030
C030
C030
C030
C030
C030
C030
C030
C030
C030
C030
E070
7FE0
3FC0
ENDCHAR
STARTCHAR 00DC
ENCODING 220
SWIDTH 720 0
DWIDTH 16 0
BBX 12 19 2 0
BITMAP
1980
1980
0000
C030
C030
C030
C030
C030
C030
C030
C030
C030
C030
C030
C030
C030
E070
7FE0
3FC0
ENDCHAR
STARTCHAR 00DD
ENCODING 221
SWIDTH 630 0
DWIDTH 14 0
BBX 14 20 0 0
BITMAP
01C0
0180
0300
0000
E00C
701C
3018
3830
1C70
0C60
0EC0
07C0
0380
0300
0300
0300
0300
0300
0300
0300
ENDCHAR
STARTCHAR 00DE
ENCODING 222
SWIDTH 630 0
DWIDTH 14 0
BBX 12 16 2 0
BITMAP
C000
C000
C000
FF00
FFC0
C0E0
C070
C030
C030
C070
C0E0
FFC0
FF00
C000
C000
C000
ENDCHAR
STARTCHAR 00DF
ENCODING 223
SWIDTH 585 0
DWIDTH 13 0
BBX 11 16 2 0
BITMAP
3E00
F700
C300
C300
C300
C600
C600
C600
C600
C380
C1C0
C0E0
C060
D860
DCC0
CF80
ENDCHAR
STARTCHAR 00E0
ENCODING 224
SWIDTH 540 0
DWIDTH 12 0
BBX 10 16 1 0
BITMAP
1C00
0C00
0600
0000
1F00
7F80
61C0
C0C0
00C0
1FC0
7EC0
E0C0
C0C0
C1C0
E3C0
7EC0
ENDCHAR
STARTCHAR 00E1
ENCODING 225
SWIDTH 540 0
DWIDTH 12 0
BBX 10 16 1 0
BITMAP
0700
0600
0C00
0000
1F00
7F80
61C0
C0C0
00C0
1FC0
7EC0
E0C0
C0C0
C1C0
E3C0
7EC0
ENDCHAR
STARTCHAR 00E2
ENCODING 226
SWIDTH 540 0
DWIDTH 12 0
BBX 10 16 1 0
BITMAP
0C00
1E00
3300
0000
1F00
7F80
61C0
C0C0
00C0
1FC0
7EC0
E0C0
C0C0
C1C0
E3C0
7EC0
ENDCHAR
STARTCHAR 00E3
ENCODING 227
SWIDTH 540 0
DWIDTH 12 0
BBX 10 16 1 0
BITMAP
1980
3F80
6300
0000
1F00
7F80
61C0
C0C0
00C0
1FC0
7EC0
E0C0
C0C0
C1C0
E3C0
7EC0
ENDCHAR
STARTCHAR 00E4
ENCODING 228
SWIDTH 540 0
DWIDTH 12 0
BBX 10 16 1 0
BITMAP
3300
3300
0000
0000
1F00
7F80
61C0
C0C0
00C0
1FC0
7EC0
E0C0
C0C0
C1C0
E3C0
7EC0
ENDCHAR
STARTCHAR 00E5
ENCODING 229
SWIDTH 540 0
DWIDTH 12 0
BBX 10 16 1 0
BITMAP
1E00
1200
1200
0C00
1F00
7F80
61C0
C0C0
00C0
1FC0
7EC0
E0C0
C0C0
C1C0
E3C0
7EC0
ENDCHAR
STARTCHAR 00E6
ENCODING 230
SWIDTH 855 0
DWIDTH 19 0
BBX 18 12 1 0
BITMAP
1E1E00
7FFF00
61E180
C0C180
00C0C0
1FFFC0
7EFFC0
E0C000
C1C0C0
C1C180
E77380
7E3F00
ENDCHAR
STARTCHAR 00E7
ENCODING 231
SWIDTH 495 0
DWIDTH 11 0
BBX 10 16 1 -4
BITMAP
1E00
3F80
6180
C0C0
C000
C000
C000
C000
C0C0
E180
7380
3F00
0800
0E00
0600
3C00
ENDCHAR
STARTCHAR 00E8
ENCODING 232
SWIDTH 540 0
DWIDTH 12 0
BBX 10 16 1 0
BITMAP
1800
0C00
0C00
0000
1E00
3F80
61C0
C0C0
C0C0
FFC0
FFC0
C000
C0C0
E0C0
7380
3F00
ENDCHAR
STARTCHAR 00E9
ENCODING 233
SWIDTH 540 0
DWIDTH 12 0
BBX 10 16 1 0
BITMAP
0700
0600
0C00
0000
1E00
3F80
61C0
C0C0
C0C0
FFC0
FFC0
C000
C0C0
E0C0
7380
3F00
ENDCHAR
STARTCHAR 00EA
ENCODING 234
SWIDTH 540 0
DWIDTH 12 0
BBX 10 16 1 0
BITMAP
0E00
1E00
3300
0000
1E00
3F80
61C0
C0C0
C0C0
FFC0
FFC0
C000
C0C0
E0C0
7380
3F00
ENDCHAR
STARTCHAR 00EB
ENCODING 235
SWIDTH 540 0
DWIDTH 12 0
BBX 10 16 1 0
BITMAP
3300
3300
0000
0000
1E00
3F80
61C0
C0C0
C0C0
FFC0
FFC0
C000
C0C0
E0C0
7380
3F00
ENDCHAR
STARTCHAR 00EC
ENCODING 236
SWIDTH 270 0
DWIDTH 6 0
BBX 3 16 1 0
BITMAP
C0
60
60
00
60
60
60
60
60
60
60
60
60
60
60
60
ENDCHAR
STARTCHAR 00ED
ENCODING 237
SWIDTH 270 0
DWIDTH 6 0
BBX 4 16 2 0
BITMAP
70
60
C0
00
C0
C0
C0
C0
C0
C0
C0
C0
C0
C0
C0
C0
ENDCHAR
STARTCHAR 00EE
ENCODING 238
SWIDTH 270 0
DWIDTH 6 0
BBX 6 16 0 0
BITMAP
38
78
CC
00
30
30
30
30
30
30
30
30
30
30
30
30
ENDCHAR
STARTCHAR 00EF
ENCODING 239
SWIDTH 270 0
DWIDTH 6 0
BBX 6 16 0 0
BITMAP
CC
CC
00
00
30
30
30
30
30
30
30
30
30
30
30
30
ENDCHAR
STARTCHAR 00F0
ENCODING 240
SWIDTH 540 0
DWIDTH 12 0
BBX 10 16 1 0
BITMAP
1880
0F00
1E00
3300
0980
3F80
61C0
C0C0
C0C0
C0C0
C0C0
C0C0
C0C0
E0C0
7380
3F00
ENDCHAR
STARTCHAR 00F1
ENCODING 241
SWIDTH 540 0
DWIDTH 12 0
BBX 10 16 1 0
BITMAP
1880
3F80
2300
0000
CF00
DF80
F1C0
E0C0
E0C0
C0C0
C0C0
C0C0
C0C0
C0C0
C0C0
C0C0
ENDCHAR
STARTCHAR 00F2
ENCODING 242
SWIDTH 540 0
DWIDTH 12 0
BBX 11 16 1 0
BITMAP
1800
0C00
0C00
0000
1E00
3F80
61C0
C0C0
C0C0
C060
C060
C0C0
C0C0
E0C0
7380
3F00
ENDCHAR
STARTCHAR 00F3
ENCODING 243
SWIDTH 540 0
DWIDTH 12 0
BBX 11 16 1 0
BITMAP
0700
0600
0C00
0000
1E00
3F80
61C0
C0C0
C0C0
C060
C060
C0C0
C0C0
E0C0
7380
3F00
ENDCHAR
STARTCHAR 00F4
ENCODING 244
SWIDTH 540 0
DWIDTH 12 0
BBX 11 16 1 0
BITMAP
0E00
1E00
3300
0000
1E00
3F80
61C0
C0C0
C0C0
C060
C060
C0C0
C0C0
E0C0
7380
3F00
ENDCHAR
STARTCHAR 00F5
ENCODING 245
SWIDTH 540 0
DWIDTH 12 0
BBX 11 16 1 0
BITMAP
1980
3F80
2300
0000
1E00
3F80
61C0
C0C0
C0C0
C060
C060
C0C0
C0C0
E0C0
7380
3F00
ENDCHAR
STARTCHAR 00F6
ENCODING 246
SWIDTH 540 0
DWIDTH 12 0
BBX 11 16 1 0
BITMAP
3300
3300
0000
0000
1E00
3F80
61C0
C0C0
C0C0
C060
C060
C0C0
C0C0
E0C0
7380
3F00
ENDCHAR
STARTCHAR 00F7
ENCODING 247
SWIDTH 540 0
DWIDTH 12 0
BBX 10 9 1 3
BITMAP
0C00
0C00
0000
FFC0
FFC0
0000
0C00
0C00
0C00
ENDCHAR
STARTCHAR 00F8
ENCODING 248
SWIDTH 585 0
DWIDTH 13 0
BBX 11 13 1 -1
BITMAP
0F60
3FC0
70C0
61E0
6360
C260
C460
EC60
7860
70E0
39C0
7F80
4000
ENDCHAR
STARTCHAR 00F9
ENCODING 249
SWIDTH 540 0
DWIDTH 12 0
BBX 10 16 1 0
BITMAP
1C00
0C00
0600
0000
C0C0
C0C0
C0C0
C0C0
C0C0
C0C0
C0C0
C0C0
C0C0
61C0
77C0
3EC0
ENDCHAR
STARTCHAR 00FA
ENCODING 250
SWIDTH 540 0
DWIDTH 12 0
BBX 10 16 1 0
BITMAP
0700
0600
0C00
0000
C0C0
C0C0
C0C0
C0C0
C0C0
C0C0
C0C0
C0C0
C0C0
61C0
77C0
3EC0
ENDCHAR
STARTCHAR 00FB
ENCODING 251
SWIDTH 540 0
DWIDTH 12 0
BBX 10 16 1 0
BITMAP
0C00
1E00
3300
0000
C0C0
C0C0
C0C0
C0C0
C0C0
C0C0
C0C0
C0C0
C0C0
61C0
77C0
3EC0
ENDCHAR
STARTCHAR 00FC
ENCODING 252
SWIDTH 540 0
DWIDTH 12 0
BBX 10 16 1 0
BITMAP
3300
3300
0000
0000
C0C0
C0C0
C0C0
C0C0
C0C0
C0C0
C0C0
C0C0
C0C0
61C0
77C0
3EC0
ENDCHAR
STARTCHAR 00FD
ENCODING 253
SWIDTH 495 0
DWIDTH 11 0
BBX 11 21 0 -5
BITMAP
0300
0600
0600
0000
C060
6060
60C0
30C0
3180
3180
1980
1B00
1B00
0F00
0E00
0600
0400
0C00
1C00
7800
3000
ENDCHAR
STARTCHAR 00FE
ENCODING 254
SWIDTH 540 0
DWIDTH 12 0
BBX 10 20 1 -4
BITMAP
C000
C000
C000
C000
CE00
DF80
F1C0
E0C0
C0C0
C0C0
C0C0
C0C0
E0C0
E0C0
F380
DF00
C000
C000
C000
C000
ENDCHAR
STARTCHAR 00FF
ENCODING 255
SWIDTH 495 0
DWIDTH 11 0
BBX 11 21 0 -5
BITMAP
1980
1980
0000
0000
C060
6060
60C0
30C0
3180
3180
1980
1B00
1B00
0F00
0E00
0600
0400
0C00
1C00
7800
3000
ENDCHAR
STARTCHAR 0102
ENCODING 258
SWIDTH 630 0
DWIDTH 14 0
BBX 15 20 0 0
BITMAP
0C60
0C40
0780
0000
0380
0380
0780
06C0
0CC0
0CE0
0C60
1860
1830
3FF0
3FF8
3018
6018
601C
600C
C00E
ENDCHAR
STARTCHAR 0103
ENCODING 259
SWIDTH 540 0
DWIDTH 12 0
BBX 10 16 1 0
BITMAP
3180
1B00
0E00
0000
1F00
7F80
61C0
C0C0
00C0
1FC0
7EC0
E0C0
C0C0
C1C0
E3C0
7EC0
ENDCHAR
STARTCHAR 0110
ENCODING 272
SWIDTH 720 0
DWIDTH 16 0
BBX 15 16 0 0
BITMAP
3FE0
3FF0
3038
301C
300C
300E
3006
FF06
FF06
3006
300E
300C
300C
3038
3FF0
3FE0
ENDCHAR
STARTCHAR 0111
ENCODING 273
SWIDTH 540 0
DWIDTH 12 0
BBX 11 16 1 0
BITMAP
00C0
0FE0
0FE0
00C0
1CC0
7FC0
61C0
C1C0
C0C0
C0C0
C0C0
C0C0
C0C0
E1C0
73C0
3EC0
ENDCHAR
STARTCHAR 0128
ENCODING 296
SWIDTH 270 0
DWIDTH 6 0
BBX 8 20 -1 0
BITMAP
23
7E
CE
00
18
18
18
18
18
18
18
18
18
18
18
18
18
18
18
18
ENDCHAR
STARTCHAR 0129
ENCODING 297
SWIDTH 270 0
DWIDTH 6 0
BBX 7 16 0 0
BITMAP
66
FE
8C
00
30
30
30
30
30
30
30
30
30
30
30
30
ENDCHAR
STARTCHAR 01A0
ENCODING 416
SWIDTH 855 0
DWIDTH 19 0
BBX 18 16 1 0
BITMAP
0FE1C0
1FF9C0
381C80
700C80
600F80
E00600
C00600
C00600
C00600
C00600
E00600
600E00
700C00
381C00
1FF800
0FE000
ENDCHAR
STARTCHAR 01A1
ENCODING 417
SWIDTH 630 0
DWIDTH 14 0
BBX 13 12 1 0
BITMAP
1E18
3F98
61C8
C0C8
C0D0
C060
C060
C0C0
C0C0
E0C0
7380
3F00
ENDCHAR
STARTCHAR 01AF
ENCODING 431
SWIDTH 810 0
DWIDTH 18 0
BBX 16 16 2 0
BITMAP
C033
C033
C031
C031
C033
C03E
C030
C030
C030
C030
C030
C030
C030
E070
7FE0
3FC0
ENDCHAR
STARTCHAR 01B0
ENCODING 432
SWIDTH 630 0
DWIDTH 14 0
BBX 13 12 1 0
BITMAP
C0D8
C0D8
C0D8
C0C8
C0C8
C0D0
C0E0
C0C0
C0C0
61C0
77C0
3EC0
ENDCHAR
ENDFONT
