STARTFONT 2.1
COMMENT Exported by Fony v1.3.6
FONT font_eth_on
SIZE 12 96 96
FONTBOUNDINGBOX 9 11 0 4
STARTPROPERTIES 6
COPYRIGHT ""
RESOLUTION_X 96
RESOLUTION_Y 96
FONT_ASCENT 16
FONT_DESCENT -4
DEFAULT_CHAR 0
ENDPROPERTIES
CHARS 2
STARTCHAR 032
ENCODING 32
SWIDTH 648 0
DWIDTH 9 0
BBX 5 5 2 9
BITMAP
F8
88
F8
20
70
ENDCHAR
STARTCHAR 033
ENCODING 33
SWIDTH 648 0
DWIDTH 9 0
BBX 0 0 0 0
BITMAP
ENDCHAR
ENDFONT
