STARTFONT 2.1
COMMENT
COMMENT Converted from OpenType font "terminal.ttf" by "otf2bdf 3.0".
COMMENT
FONT -FreeType-Terminal Dosis-Medium-R-Normal--11-240-32-32-P-40-ISO10646-1
SIZE 24 32 32
FONTBOUNDINGBOX 12 15 -1 -3
STARTPROPERTIES 19
FOUNDRY "FreeType"
FAMILY_NAME "Terminal Dosis"
WEIGHT_NAME "Medium"
SLANT "R"
SETWIDTH_NAME "Normal"
ADD_STYLE_NAME ""
PIXEL_SIZE 11
POINT_SIZE 240
RESOLUTION_X 32
RESOLUTION_Y 32
SPACING "P"
AVERAGE_WIDTH 40
CHARSET_REGISTRY "ISO10646"
CHARSET_ENCODING "1"
FONT_ASCENT 11
FONT_DESCENT 2
COPYRIGHT "Copyright (c) 2011, Edgar Tolentino, Pablo Impallari, Igino Marini (impallari.com), with Reserved Font Name Dosis."
_OTF_FONTFILE "terminal.ttf"
_OTF_PSNAME "TerminalDosis-ExtraLight"
ENDPROPERTIES
CHARS 223
STARTCHAR 0020
ENCODING 32
SWIDTH 187 0
DWIDTH 2 0
BBX 0 0 0 0
BITMAP
ENDCHAR
STARTCHAR 0021
ENCODING 33
SWIDTH 187 0
DWIDTH 2 0
BBX 1 7 1 1
BITMAP
80
80
80
80
00
00
80
ENDCHAR
STARTCHAR 0022
ENCODING 34
SWIDTH 281 0
DWIDTH 3 0
BBX 1 1 0 6
BITMAP
80
ENDCHAR
STARTCHAR 0023
ENCODING 35
SWIDTH 562 0
DWIDTH 6 0
BBX 6 6 0 1
BITMAP
20
7C
50
F8
50
40
ENDCHAR
STARTCHAR 0024
ENCODING 36
SWIDTH 468 0
DWIDTH 5 0
BBX 5 9 0 0
BITMAP
70
A0
A0
60
10
28
28
28
70
ENDCHAR
STARTCHAR 0025
ENCODING 37
SWIDTH 750 0
DWIDTH 8 0
BBX 8 8 0 0
BITMAP
60
A4
A8
68
16
19
29
46
ENDCHAR
STARTCHAR 0026
ENCODING 38
SWIDTH 656 0
DWIDTH 7 0
BBX 6 9 0 0
BITMAP
30
40
40
40
64
94
88
8C
74
ENDCHAR
STARTCHAR 0027
ENCODING 39
SWIDTH 93 0
DWIDTH 1 0
BBX 1 1 0 6
BITMAP
80
ENDCHAR
STARTCHAR 0028
ENCODING 40
SWIDTH 281 0
DWIDTH 3 0
BBX 2 9 1 0
BITMAP
C0
80
80
80
80
80
80
80
C0
ENDCHAR
STARTCHAR 0029
ENCODING 41
SWIDTH 281 0
DWIDTH 3 0
BBX 2 9 0 0
BITMAP
C0
40
40
40
40
40
40
40
C0
ENDCHAR
STARTCHAR 002A
ENCODING 42
SWIDTH 468 0
DWIDTH 5 0
BBX 4 3 0 5
BITMAP
D0
20
40
ENDCHAR
STARTCHAR 002B
ENCODING 43
SWIDTH 468 0
DWIDTH 5 0
BBX 4 3 0 1
BITMAP
20
F0
20
ENDCHAR
STARTCHAR 002C
ENCODING 44
SWIDTH 187 0
DWIDTH 2 0
BBX 0 0 0 -1
BITMAP
ENDCHAR
STARTCHAR 002D
ENCODING 45
SWIDTH 375 0
DWIDTH 4 0
BBX 3 1 1 2
BITMAP
E0
ENDCHAR
STARTCHAR 002E
ENCODING 46
SWIDTH 187 0
DWIDTH 2 0
BBX 1 1 0 0
BITMAP
80
ENDCHAR
STARTCHAR 002F
ENCODING 47
SWIDTH 468 0
DWIDTH 5 0
BBX 5 8 0 0
BITMAP
08
10
10
20
20
40
80
80
ENDCHAR
STARTCHAR 0030
ENCODING 48
SWIDTH 562 0
DWIDTH 6 0
BBX 4 8 1 0
BITMAP
E0
90
90
90
D0
90
90
E0
ENDCHAR
STARTCHAR 0031
ENCODING 49
SWIDTH 187 0
DWIDTH 2 0
BBX 1 7 0 0
BITMAP
80
80
80
80
80
80
80
ENDCHAR
STARTCHAR 0032
ENCODING 50
SWIDTH 468 0
DWIDTH 5 0
BBX 5 8 0 0
BITMAP
70
90
08
10
20
C0
80
F8
ENDCHAR
STARTCHAR 0033
ENCODING 51
SWIDTH 468 0
DWIDTH 5 0
BBX 5 8 0 0
BITMAP
70
10
10
30
10
08
88
70
ENDCHAR
STARTCHAR 0034
ENCODING 52
SWIDTH 468 0
DWIDTH 5 0
BBX 4 7 0 1
BITMAP
20
40
40
90
90
F0
10
ENDCHAR
STARTCHAR 0035
ENCODING 53
SWIDTH 468 0
DWIDTH 5 0
BBX 5 8 0 0
BITMAP
70
80
80
70
08
08
88
70
ENDCHAR
STARTCHAR 0036
ENCODING 54
SWIDTH 562 0
DWIDTH 6 0
BBX 4 8 1 0
BITMAP
E0
90
80
E0
90
90
90
E0
ENDCHAR
STARTCHAR 0037
ENCODING 55
SWIDTH 468 0
DWIDTH 5 0
BBX 5 7 0 0
BITMAP
F8
90
10
20
20
40
40
ENDCHAR
STARTCHAR 0038
ENCODING 56
SWIDTH 468 0
DWIDTH 5 0
BBX 4 8 1 0
BITMAP
E0
90
90
60
90
90
90
E0
ENDCHAR
STARTCHAR 0039
ENCODING 57
SWIDTH 562 0
DWIDTH 6 0
BBX 4 8 1 0
BITMAP
E0
90
90
90
F0
10
10
E0
ENDCHAR
STARTCHAR 003A
ENCODING 58
SWIDTH 187 0
DWIDTH 2 0
BBX 1 5 1 0
BITMAP
80
00
00
00
80
ENDCHAR
STARTCHAR 003B
ENCODING 59
SWIDTH 187 0
DWIDTH 2 0
BBX 1 1 1 -1
BITMAP
80
ENDCHAR
STARTCHAR 003C
ENCODING 60
SWIDTH 375 0
DWIDTH 4 0
BBX 2 4 1 1
BITMAP
40
80
80
40
ENDCHAR
STARTCHAR 003D
ENCODING 61
SWIDTH 468 0
DWIDTH 5 0
BBX 3 3 1 2
BITMAP
E0
00
E0
ENDCHAR
STARTCHAR 003E
ENCODING 62
SWIDTH 375 0
DWIDTH 4 0
BBX 3 4 1 1
BITMAP
80
60
40
80
ENDCHAR
STARTCHAR 003F
ENCODING 63
SWIDTH 375 0
DWIDTH 4 0
BBX 4 9 0 0
BITMAP
60
90
10
20
40
00
00
00
40
ENDCHAR
STARTCHAR 0040
ENCODING 64
SWIDTH 750 0
DWIDTH 8 0
BBX 6 8 1 -1
BITMAP
78
84
B4
B4
D4
BC
80
70
ENDCHAR
STARTCHAR 0041
ENCODING 65
SWIDTH 562 0
DWIDTH 6 0
BBX 5 8 0 0
BITMAP
20
30
50
50
48
48
78
88
ENDCHAR
STARTCHAR 0042
ENCODING 66
SWIDTH 562 0
DWIDTH 6 0
BBX 4 8 1 0
BITMAP
F0
90
90
E0
90
90
90
F0
ENDCHAR
STARTCHAR 0043
ENCODING 67
SWIDTH 562 0
DWIDTH 6 0
BBX 4 8 1 0
BITMAP
F0
90
80
80
80
80
90
F0
ENDCHAR
STARTCHAR 0044
ENCODING 68
SWIDTH 562 0
DWIDTH 6 0
BBX 4 8 1 0
BITMAP
F0
90
90
90
90
90
90
F0
ENDCHAR
STARTCHAR 0045
ENCODING 69
SWIDTH 468 0
DWIDTH 5 0
BBX 4 8 1 0
BITMAP
F0
80
80
C0
80
80
80
F0
ENDCHAR
STARTCHAR 0046
ENCODING 70
SWIDTH 468 0
DWIDTH 5 0
BBX 4 8 1 0
BITMAP
F0
80
80
C0
80
80
80
80
ENDCHAR
STARTCHAR 0047
ENCODING 71
SWIDTH 562 0
DWIDTH 6 0
BBX 4 8 1 0
BITMAP
F0
90
80
B0
90
90
90
E0
ENDCHAR
STARTCHAR 0048
ENCODING 72
SWIDTH 562 0
DWIDTH 6 0
BBX 4 7 1 1
BITMAP
90
90
F0
90
90
90
80
ENDCHAR
STARTCHAR 0049
ENCODING 73
SWIDTH 187 0
DWIDTH 2 0
BBX 1 7 1 1
BITMAP
80
80
80
80
80
80
80
ENDCHAR
STARTCHAR 004A
ENCODING 74
SWIDTH 468 0
DWIDTH 5 0
BBX 5 8 0 0
BITMAP
38
08
08
08
08
08
88
70
ENDCHAR
STARTCHAR 004B
ENCODING 75
SWIDTH 562 0
DWIDTH 6 0
BBX 4 8 1 0
BITMAP
10
A0
C0
C0
C0
A0
90
80
ENDCHAR
STARTCHAR 004C
ENCODING 76
SWIDTH 468 0
DWIDTH 5 0
BBX 4 7 1 1
BITMAP
80
80
80
80
80
80
F0
ENDCHAR
STARTCHAR 004D
ENCODING 77
SWIDTH 656 0
DWIDTH 7 0
BBX 5 8 1 0
BITMAP
88
88
D8
D8
A8
88
88
80
ENDCHAR
STARTCHAR 004E
ENCODING 78
SWIDTH 562 0
DWIDTH 6 0
BBX 4 8 1 0
BITMAP
80
90
D0
D0
B0
B0
90
90
ENDCHAR
STARTCHAR 004F
ENCODING 79
SWIDTH 562 0
DWIDTH 6 0
BBX 4 8 1 0
BITMAP
F0
90
90
90
90
90
90
F0
ENDCHAR
STARTCHAR 0050
ENCODING 80
SWIDTH 562 0
DWIDTH 6 0
BBX 4 8 1 0
BITMAP
F0
90
90
90
F0
80
80
80
ENDCHAR
STARTCHAR 0051
ENCODING 81
SWIDTH 562 0
DWIDTH 6 0
BBX 4 8 1 -1
BITMAP
F0
90
90
90
90
90
90
F0
ENDCHAR
STARTCHAR 0052
ENCODING 82
SWIDTH 562 0
DWIDTH 6 0
BBX 4 8 1 0
BITMAP
F0
90
90
F0
A0
A0
90
80
ENDCHAR
STARTCHAR 0053
ENCODING 83
SWIDTH 468 0
DWIDTH 5 0
BBX 5 8 0 0
BITMAP
70
80
80
40
30
08
88
70
ENDCHAR
STARTCHAR 0054
ENCODING 84
SWIDTH 468 0
DWIDTH 5 0
BBX 5 8 0 0
BITMAP
F8
20
20
20
20
20
20
20
ENDCHAR
STARTCHAR 0055
ENCODING 85
SWIDTH 562 0
DWIDTH 6 0
BBX 4 7 1 1
BITMAP
90
90
90
90
90
90
F0
ENDCHAR
STARTCHAR 0056
ENCODING 86
SWIDTH 562 0
DWIDTH 6 0
BBX 5 8 0 0
BITMAP
80
88
88
50
50
50
30
20
ENDCHAR
STARTCHAR 0057
ENCODING 87
SWIDTH 750 0
DWIDTH 8 0
BBX 8 8 0 0
BITMAP
81
82
82
52
5A
5C
6C
24
ENDCHAR
STARTCHAR 0058
ENCODING 88
SWIDTH 468 0
DWIDTH 5 0
BBX 4 8 0 0
BITMAP
80
90
60
20
20
60
90
80
ENDCHAR
STARTCHAR 0059
ENCODING 89
SWIDTH 562 0
DWIDTH 6 0
BBX 5 7 0 0
BITMAP
80
88
50
50
20
20
20
ENDCHAR
STARTCHAR 005A
ENCODING 90
SWIDTH 468 0
DWIDTH 5 0
BBX 5 8 0 0
BITMAP
F8
10
10
20
40
40
80
F8
ENDCHAR
STARTCHAR 005B
ENCODING 91
SWIDTH 281 0
DWIDTH 3 0
BBX 2 9 1 0
BITMAP
C0
80
80
80
80
80
80
80
C0
ENDCHAR
STARTCHAR 005C
ENCODING 92
SWIDTH 375 0
DWIDTH 4 0
BBX 3 7 0 0
BITMAP
80
80
40
40
40
20
20
ENDCHAR
STARTCHAR 005D
ENCODING 93
SWIDTH 281 0
DWIDTH 3 0
BBX 2 9 0 0
BITMAP
C0
40
40
40
40
40
40
40
C0
ENDCHAR
STARTCHAR 005E
ENCODING 94
SWIDTH 281 0
DWIDTH 3 0
BBX 2 1 0 7
BITMAP
C0
ENDCHAR
STARTCHAR 005F
ENCODING 95
SWIDTH 375 0
DWIDTH 4 0
BBX 4 1 0 -1
BITMAP
F0
ENDCHAR
STARTCHAR 0060
ENCODING 96
SWIDTH 93 0
DWIDTH 1 0
BBX 1 1 0 7
BITMAP
80
ENDCHAR
STARTCHAR 0061
ENCODING 97
SWIDTH 468 0
DWIDTH 5 0
BBX 4 5 0 0
BITMAP
60
10
70
90
60
ENDCHAR
STARTCHAR 0062
ENCODING 98
SWIDTH 468 0
DWIDTH 5 0
BBX 4 6 1 1
BITMAP
80
E0
90
90
90
E0
ENDCHAR
STARTCHAR 0063
ENCODING 99
SWIDTH 375 0
DWIDTH 4 0
BBX 3 5 1 0
BITMAP
E0
80
80
80
E0
ENDCHAR
STARTCHAR 0064
ENCODING 100
SWIDTH 468 0
DWIDTH 5 0
BBX 3 6 1 1
BITMAP
20
E0
A0
A0
A0
E0
ENDCHAR
STARTCHAR 0065
ENCODING 101
SWIDTH 468 0
DWIDTH 5 0
BBX 3 5 1 0
BITMAP
E0
A0
E0
80
E0
ENDCHAR
STARTCHAR 0066
ENCODING 102
SWIDTH 281 0
DWIDTH 3 0
BBX 2 9 1 0
BITMAP
C0
80
80
80
C0
80
80
80
80
ENDCHAR
STARTCHAR 0067
ENCODING 103
SWIDTH 468 0
DWIDTH 5 0
BBX 5 8 0 -3
BITMAP
68
90
90
F0
70
88
88
70
ENDCHAR
STARTCHAR 0068
ENCODING 104
SWIDTH 468 0
DWIDTH 5 0
BBX 4 6 1 1
BITMAP
80
E0
90
90
90
90
ENDCHAR
STARTCHAR 0069
ENCODING 105
SWIDTH 187 0
DWIDTH 2 0
BBX 1 8 0 0
BITMAP
80
00
00
00
80
80
80
80
ENDCHAR
STARTCHAR 006A
ENCODING 106
SWIDTH 187 0
DWIDTH 2 0
BBX 1 11 0 -3
BITMAP
80
00
00
00
80
80
80
80
80
80
80
ENDCHAR
STARTCHAR 006B
ENCODING 107
SWIDTH 468 0
DWIDTH 5 0
BBX 3 7 1 1
BITMAP
80
80
A0
C0
C0
A0
80
ENDCHAR
STARTCHAR 006C
ENCODING 108
SWIDTH 187 0
DWIDTH 2 0
BBX 1 7 1 1
BITMAP
80
80
80
80
80
80
80
ENDCHAR
STARTCHAR 006D
ENCODING 109
SWIDTH 750 0
DWIDTH 8 0
BBX 7 5 1 0
BITMAP
6C
92
A2
A2
82
ENDCHAR
STARTCHAR 006E
ENCODING 110
SWIDTH 468 0
DWIDTH 5 0
BBX 4 5 1 0
BITMAP
60
90
90
90
90
ENDCHAR
STARTCHAR 006F
ENCODING 111
SWIDTH 468 0
DWIDTH 5 0
BBX 3 5 1 0
BITMAP
E0
A0
A0
A0
E0
ENDCHAR
STARTCHAR 0070
ENCODING 112
SWIDTH 468 0
DWIDTH 5 0
BBX 4 8 1 -3
BITMAP
60
90
90
90
E0
80
80
80
ENDCHAR
STARTCHAR 0071
ENCODING 113
SWIDTH 468 0
DWIDTH 5 0
BBX 3 7 1 -3
BITMAP
E0
A0
A0
A0
E0
20
20
ENDCHAR
STARTCHAR 0072
ENCODING 114
SWIDTH 281 0
DWIDTH 3 0
BBX 2 5 1 0
BITMAP
40
80
80
80
80
ENDCHAR
STARTCHAR 0073
ENCODING 115
SWIDTH 375 0
DWIDTH 4 0
BBX 3 5 1 0
BITMAP
C0
80
40
20
C0
ENDCHAR
STARTCHAR 0074
ENCODING 116
SWIDTH 281 0
DWIDTH 3 0
BBX 2 5 1 1
BITMAP
C0
80
80
80
C0
ENDCHAR
STARTCHAR 0075
ENCODING 117
SWIDTH 468 0
DWIDTH 5 0
BBX 4 5 1 0
BITMAP
10
90
90
90
E0
ENDCHAR
STARTCHAR 0076
ENCODING 118
SWIDTH 375 0
DWIDTH 4 0
BBX 4 5 0 0
BITMAP
80
90
60
60
40
ENDCHAR
STARTCHAR 0077
ENCODING 119
SWIDTH 656 0
DWIDTH 7 0
BBX 7 5 0 0
BITMAP
92
B4
AC
6C
28
ENDCHAR
STARTCHAR 0078
ENCODING 120
SWIDTH 375 0
DWIDTH 4 0
BBX 4 5 0 0
BITMAP
90
60
40
60
90
ENDCHAR
STARTCHAR 0079
ENCODING 121
SWIDTH 375 0
DWIDTH 4 0
BBX 4 8 0 -3
BITMAP
80
90
60
60
20
40
40
80
ENDCHAR
STARTCHAR 007A
ENCODING 122
SWIDTH 375 0
DWIDTH 4 0
BBX 4 5 0 0
BITMAP
F0
20
40
80
F0
ENDCHAR
STARTCHAR 007B
ENCODING 123
SWIDTH 281 0
DWIDTH 3 0
BBX 3 9 0 0
BITMAP
20
40
80
80
80
80
80
80
60
ENDCHAR
STARTCHAR 007C
ENCODING 124
SWIDTH 187 0
DWIDTH 2 0
BBX 1 7 1 1
BITMAP
80
80
80
80
80
80
80
ENDCHAR
STARTCHAR 007D
ENCODING 125
SWIDTH 281 0
DWIDTH 3 0
BBX 3 9 0 0
BITMAP
C0
40
40
40
20
40
40
40
C0
ENDCHAR
STARTCHAR 007E
ENCODING 126
SWIDTH 375 0
DWIDTH 4 0
BBX 3 2 1 2
BITMAP
A0
60
ENDCHAR
STARTCHAR 00A0
ENCODING 160
SWIDTH 187 0
DWIDTH 2 0
BBX 0 0 0 0
BITMAP
ENDCHAR
STARTCHAR 00A1
ENCODING 161
SWIDTH 187 0
DWIDTH 2 0
BBX 1 8 1 0
BITMAP
80
00
00
80
80
80
80
80
ENDCHAR
STARTCHAR 00A2
ENCODING 162
SWIDTH 375 0
DWIDTH 4 0
BBX 4 5 0 2
BITMAP
70
D0
C0
D0
70
ENDCHAR
STARTCHAR 00A3
ENCODING 163
SWIDTH 468 0
DWIDTH 5 0
BBX 5 9 0 0
BITMAP
18
20
40
40
70
40
40
40
F8
ENDCHAR
STARTCHAR 00A4
ENCODING 164
SWIDTH 468 0
DWIDTH 5 0
BBX 4 5 1 3
BITMAP
70
A0
90
A0
F0
ENDCHAR
STARTCHAR 00A5
ENCODING 165
SWIDTH 468 0
DWIDTH 5 0
BBX 5 8 0 0
BITMAP
88
90
50
60
70
70
20
20
ENDCHAR
STARTCHAR 00A6
ENCODING 166
SWIDTH 187 0
DWIDTH 2 0
BBX 1 7 1 1
BITMAP
80
80
00
00
00
80
80
ENDCHAR
STARTCHAR 00A7
ENCODING 167
SWIDTH 468 0
DWIDTH 5 0
BBX 3 9 1 -1
BITMAP
E0
80
80
80
E0
60
20
20
E0
ENDCHAR
STARTCHAR 00A8
ENCODING 168
SWIDTH 187 0
DWIDTH 2 0
BBX 2 1 0 7
BITMAP
C0
ENDCHAR
STARTCHAR 00A9
ENCODING 169
SWIDTH 750 0
DWIDTH 8 0
BBX 6 8 1 0
BITMAP
78
B4
C4
C4
C4
B4
84
78
ENDCHAR
STARTCHAR 00AA
ENCODING 170
SWIDTH 281 0
DWIDTH 3 0
BBX 2 3 1 5
BITMAP
C0
C0
C0
ENDCHAR
STARTCHAR 00AB
ENCODING 171
SWIDTH 375 0
DWIDTH 4 0
BBX 3 4 0 1
BITMAP
40
A0
A0
40
ENDCHAR
STARTCHAR 00AC
ENCODING 172
SWIDTH 468 0
DWIDTH 5 0
BBX 3 1 1 1
BITMAP
E0
ENDCHAR
STARTCHAR 00AD
ENCODING 173
SWIDTH 468 0
DWIDTH 5 0
BBX 3 1 1 2
BITMAP
E0
ENDCHAR
STARTCHAR 00AE
ENCODING 174
SWIDTH 750 0
DWIDTH 8 0
BBX 6 8 1 0
BITMAP
78
B4
D4
B4
D4
84
84
78
ENDCHAR
STARTCHAR 00AF
ENCODING 175
SWIDTH 281 0
DWIDTH 3 0
BBX 3 1 0 7
BITMAP
E0
ENDCHAR
STARTCHAR 00B0
ENCODING 176
SWIDTH 468 0
DWIDTH 5 0
BBX 4 5 0 4
BITMAP
70
90
90
90
60
ENDCHAR
STARTCHAR 00B1
ENCODING 177
SWIDTH 468 0
DWIDTH 5 0
BBX 4 5 1 1
BITMAP
40
F0
40
00
F0
ENDCHAR
STARTCHAR 00B2
ENCODING 178
SWIDTH 281 0
DWIDTH 3 0
BBX 3 4 0 4
BITMAP
60
20
C0
E0
ENDCHAR
STARTCHAR 00B3
ENCODING 179
SWIDTH 281 0
DWIDTH 3 0
BBX 2 4 1 4
BITMAP
C0
80
40
C0
ENDCHAR
STARTCHAR 00B4
ENCODING 180
SWIDTH 93 0
DWIDTH 1 0
BBX 1 1 0 7
BITMAP
80
ENDCHAR
STARTCHAR 00B5
ENCODING 181
SWIDTH 468 0
DWIDTH 5 0
BBX 4 8 1 -3
BITMAP
10
90
90
90
E0
80
80
80
ENDCHAR
STARTCHAR 00B6
ENCODING 182
SWIDTH 562 0
DWIDTH 6 0
BBX 5 8 0 0
BITMAP
78
78
F8
78
78
18
18
18
ENDCHAR
STARTCHAR 00B7
ENCODING 183
SWIDTH 187 0
DWIDTH 2 0
BBX 1 1 0 3
BITMAP
80
ENDCHAR
STARTCHAR 00B8
ENCODING 184
SWIDTH 187 0
DWIDTH 2 0
BBX 2 2 0 -3
BITMAP
80
C0
ENDCHAR
STARTCHAR 00B9
ENCODING 185
SWIDTH 187 0
DWIDTH 2 0
BBX 1 3 0 4
BITMAP
80
80
80
ENDCHAR
STARTCHAR 00BA
ENCODING 186
SWIDTH 375 0
DWIDTH 4 0
BBX 3 3 0 5
BITMAP
60
A0
60
ENDCHAR
STARTCHAR 00BB
ENCODING 187
SWIDTH 375 0
DWIDTH 4 0
BBX 3 4 0 1
BITMAP
20
60
60
A0
ENDCHAR
STARTCHAR 00BC
ENCODING 188
SWIDTH 562 0
DWIDTH 6 0
BBX 6 8 0 0
BITMAP
80
88
90
10
20
54
4C
84
ENDCHAR
STARTCHAR 00BD
ENCODING 189
SWIDTH 656 0
DWIDTH 7 0
BBX 6 8 0 0
BITMAP
80
98
90
20
2C
44
58
8C
ENDCHAR
STARTCHAR 00BE
ENCODING 190
SWIDTH 750 0
DWIDTH 8 0
BBX 6 8 1 0
BITMAP
C0
88
50
D0
24
28
4C
40
ENDCHAR
STARTCHAR 00BF
ENCODING 191
SWIDTH 375 0
DWIDTH 4 0
BBX 4 8 0 0
BITMAP
20
00
20
40
80
80
90
70
ENDCHAR
STARTCHAR 00C0
ENCODING 192
SWIDTH 562 0
DWIDTH 6 0
BBX 5 10 0 0
BITMAP
10
00
20
30
50
50
48
48
78
88
ENDCHAR
STARTCHAR 00C1
ENCODING 193
SWIDTH 562 0
DWIDTH 6 0
BBX 5 8 0 2
BITMAP
20
30
50
50
48
48
78
88
ENDCHAR
STARTCHAR 00C2
ENCODING 194
SWIDTH 562 0
DWIDTH 6 0
BBX 5 10 0 0
BITMAP
20
00
20
30
50
50
48
48
78
88
ENDCHAR
STARTCHAR 00C3
ENCODING 195
SWIDTH 562 0
DWIDTH 6 0
BBX 5 11 0 0
BITMAP
70
00
00
20
30
50
50
48
48
78
88
ENDCHAR
STARTCHAR 00C4
ENCODING 196
SWIDTH 562 0
DWIDTH 6 0
BBX 5 10 0 0
BITMAP
30
00
20
30
50
50
48
48
78
88
ENDCHAR
STARTCHAR 00C5
ENCODING 197
SWIDTH 562 0
DWIDTH 6 0
BBX 5 12 0 0
BITMAP
30
50
30
00
20
30
50
50
48
48
78
88
ENDCHAR
STARTCHAR 00C6
ENCODING 198
SWIDTH 656 0
DWIDTH 7 0
BBX 6 8 1 0
BITMAP
7C
A0
A0
F8
A0
A0
A0
9C
ENDCHAR
STARTCHAR 00C7
ENCODING 199
SWIDTH 562 0
DWIDTH 6 0
BBX 4 10 1 -2
BITMAP
F0
90
80
80
80
80
90
E0
40
20
ENDCHAR
STARTCHAR 00C8
ENCODING 200
SWIDTH 468 0
DWIDTH 5 0
BBX 4 10 1 0
BITMAP
20
00
F0
80
80
C0
80
80
80
F0
ENDCHAR
STARTCHAR 00C9
ENCODING 201
SWIDTH 468 0
DWIDTH 5 0
BBX 4 10 1 0
BITMAP
40
00
F0
80
80
C0
80
80
80
F0
ENDCHAR
STARTCHAR 00CA
ENCODING 202
SWIDTH 468 0
DWIDTH 5 0
BBX 4 8 1 2
BITMAP
F0
80
80
C0
80
80
80
F0
ENDCHAR
STARTCHAR 00CB
ENCODING 203
SWIDTH 468 0
DWIDTH 5 0
BBX 4 10 1 0
BITMAP
60
00
F0
80
80
C0
80
80
80
F0
ENDCHAR
STARTCHAR 00CC
ENCODING 204
SWIDTH 187 0
DWIDTH 2 0
BBX 1 7 0 3
BITMAP
80
80
80
80
80
80
80
ENDCHAR
STARTCHAR 00CD
ENCODING 205
SWIDTH 187 0
DWIDTH 2 0
BBX 1 10 0 0
BITMAP
80
00
00
80
80
80
80
80
80
80
ENDCHAR
STARTCHAR 00CE
ENCODING 206
SWIDTH 187 0
DWIDTH 2 0
BBX 2 10 0 0
BITMAP
40
00
00
80
80
80
80
80
80
80
ENDCHAR
STARTCHAR 00CF
ENCODING 207
SWIDTH 187 0
DWIDTH 2 0
BBX 2 10 0 0
BITMAP
C0
00
00
80
80
80
80
80
80
80
ENDCHAR
STARTCHAR 00D0
ENCODING 208
SWIDTH 562 0
DWIDTH 6 0
BBX 5 8 0 0
BITMAP
78
88
88
E8
88
88
88
78
ENDCHAR
STARTCHAR 00D1
ENCODING 209
SWIDTH 562 0
DWIDTH 6 0
BBX 4 11 1 0
BITMAP
F0
00
00
80
90
D0
D0
B0
B0
90
90
ENDCHAR
STARTCHAR 00D2
ENCODING 210
SWIDTH 562 0
DWIDTH 6 0
BBX 4 10 1 0
BITMAP
20
00
F0
90
90
90
90
90
90
F0
ENDCHAR
STARTCHAR 00D3
ENCODING 211
SWIDTH 562 0
DWIDTH 6 0
BBX 4 10 1 0
BITMAP
40
00
F0
90
90
90
90
90
90
F0
ENDCHAR
STARTCHAR 00D4
ENCODING 212
SWIDTH 562 0
DWIDTH 6 0
BBX 4 8 1 2
BITMAP
F0
90
90
90
90
90
90
F0
ENDCHAR
STARTCHAR 00D5
ENCODING 213
SWIDTH 562 0
DWIDTH 6 0
BBX 4 11 1 0
BITMAP
F0
00
00
F0
90
90
90
90
90
90
F0
ENDCHAR
STARTCHAR 00D6
ENCODING 214
SWIDTH 562 0
DWIDTH 6 0
BBX 4 10 1 0
BITMAP
60
00
F0
90
90
90
90
90
90
F0
ENDCHAR
STARTCHAR 00D7
ENCODING 215
SWIDTH 375 0
DWIDTH 4 0
BBX 2 3 1 2
BITMAP
C0
80
C0
ENDCHAR
STARTCHAR 00D8
ENCODING 216
SWIDTH 562 0
DWIDTH 6 0
BBX 4 8 1 0
BITMAP
E0
90
B0
D0
D0
90
90
70
ENDCHAR
STARTCHAR 00D9
ENCODING 217
SWIDTH 562 0
DWIDTH 6 0
BBX 4 10 1 0
BITMAP
20
00
00
90
90
90
90
90
90
F0
ENDCHAR
STARTCHAR 00DA
ENCODING 218
SWIDTH 562 0
DWIDTH 6 0
BBX 4 10 1 0
BITMAP
40
00
00
90
90
90
90
90
90
F0
ENDCHAR
STARTCHAR 00DB
ENCODING 219
SWIDTH 562 0
DWIDTH 6 0
BBX 4 7 1 3
BITMAP
90
90
90
90
90
90
F0
ENDCHAR
STARTCHAR 00DC
ENCODING 220
SWIDTH 562 0
DWIDTH 6 0
BBX 4 10 1 0
BITMAP
60
00
00
90
90
90
90
90
90
F0
ENDCHAR
STARTCHAR 00DD
ENCODING 221
SWIDTH 562 0
DWIDTH 6 0
BBX 5 7 0 2
BITMAP
80
88
50
50
20
20
20
ENDCHAR
STARTCHAR 00DE
ENCODING 222
SWIDTH 468 0
DWIDTH 5 0
BBX 4 7 1 1
BITMAP
E0
90
90
90
90
E0
80
ENDCHAR
STARTCHAR 00DF
ENCODING 223
SWIDTH 562 0
DWIDTH 6 0
BBX 5 9 0 0
BITMAP
30
50
48
50
D0
48
48
48
78
ENDCHAR
STARTCHAR 00E0
ENCODING 224
SWIDTH 468 0
DWIDTH 5 0
BBX 4 8 0 0
BITMAP
40
00
00
60
90
70
90
60
ENDCHAR
STARTCHAR 00E1
ENCODING 225
SWIDTH 468 0
DWIDTH 5 0
BBX 4 8 0 0
BITMAP
20
00
00
60
90
70
90
60
ENDCHAR
STARTCHAR 00E2
ENCODING 226
SWIDTH 468 0
DWIDTH 5 0
BBX 4 8 0 0
BITMAP
20
00
00
60
90
70
90
60
ENDCHAR
STARTCHAR 00E3
ENCODING 227
SWIDTH 468 0
DWIDTH 5 0
BBX 4 8 0 0
BITMAP
70
00
00
60
90
70
90
60
ENDCHAR
STARTCHAR 00E4
ENCODING 228
SWIDTH 468 0
DWIDTH 5 0
BBX 4 8 0 0
BITMAP
60
00
00
60
90
70
90
60
ENDCHAR
STARTCHAR 00E5
ENCODING 229
SWIDTH 468 0
DWIDTH 5 0
BBX 4 9 0 0
BITMAP
60
A0
60
00
60
90
70
90
60
ENDCHAR
STARTCHAR 00E6
ENCODING 230
SWIDTH 750 0
DWIDTH 8 0
BBX 7 5 0 0
BITMAP
6E
12
7E
92
6E
ENDCHAR
STARTCHAR 00E7
ENCODING 231
SWIDTH 375 0
DWIDTH 4 0
BBX 3 7 1 -2
BITMAP
E0
80
80
80
E0
40
40
ENDCHAR
STARTCHAR 00E8
ENCODING 232
SWIDTH 468 0
DWIDTH 5 0
BBX 3 5 1 3
BITMAP
E0
A0
E0
80
E0
ENDCHAR
STARTCHAR 00E9
ENCODING 233
SWIDTH 468 0
DWIDTH 5 0
BBX 3 5 1 3
BITMAP
E0
A0
E0
80
E0
ENDCHAR
STARTCHAR 00EA
ENCODING 234
SWIDTH 468 0
DWIDTH 5 0
BBX 3 8 1 0
BITMAP
40
00
00
E0
A0
E0
80
E0
ENDCHAR
STARTCHAR 00EB
ENCODING 235
SWIDTH 468 0
DWIDTH 5 0
BBX 3 8 1 0
BITMAP
C0
00
00
E0
A0
E0
80
E0
ENDCHAR
STARTCHAR 00EC
ENCODING 236
SWIDTH 187 0
DWIDTH 2 0
BBX 1 8 0 0
BITMAP
80
00
00
00
80
80
80
80
ENDCHAR
STARTCHAR 00ED
ENCODING 237
SWIDTH 187 0
DWIDTH 2 0
BBX 2 8 0 0
BITMAP
40
00
00
00
80
80
80
80
ENDCHAR
STARTCHAR 00EE
ENCODING 238
SWIDTH 187 0
DWIDTH 2 0
BBX 1 7 0 1
BITMAP
80
00
00
80
80
80
80
ENDCHAR
STARTCHAR 00EF
ENCODING 239
SWIDTH 187 0
DWIDTH 2 0
BBX 2 8 0 0
BITMAP
C0
00
00
00
80
80
80
80
ENDCHAR
STARTCHAR 00F0
ENCODING 240
SWIDTH 468 0
DWIDTH 5 0
BBX 3 9 1 0
BITMAP
C0
20
60
20
E0
A0
A0
A0
E0
ENDCHAR
STARTCHAR 00F1
ENCODING 241
SWIDTH 468 0
DWIDTH 5 0
BBX 4 8 1 0
BITMAP
E0
00
00
60
90
90
90
90
ENDCHAR
STARTCHAR 00F2
ENCODING 242
SWIDTH 468 0
DWIDTH 5 0
BBX 3 5 1 3
BITMAP
E0
A0
A0
A0
E0
ENDCHAR
STARTCHAR 00F3
ENCODING 243
SWIDTH 468 0
DWIDTH 5 0
BBX 3 5 1 3
BITMAP
E0
A0
A0
A0
E0
ENDCHAR
STARTCHAR 00F4
ENCODING 244
SWIDTH 468 0
DWIDTH 5 0
BBX 3 8 1 0
BITMAP
40
00
00
E0
A0
A0
A0
E0
ENDCHAR
STARTCHAR 00F5
ENCODING 245
SWIDTH 468 0
DWIDTH 5 0
BBX 3 8 1 0
BITMAP
E0
00
00
E0
A0
A0
A0
E0
ENDCHAR
STARTCHAR 00F6
ENCODING 246
SWIDTH 468 0
DWIDTH 5 0
BBX 3 8 1 0
BITMAP
C0
00
00
E0
A0
A0
A0
E0
ENDCHAR
STARTCHAR 00F7
ENCODING 247
SWIDTH 468 0
DWIDTH 5 0
BBX 3 5 1 0
BITMAP
40
00
E0
00
40
ENDCHAR
STARTCHAR 00F8
ENCODING 248
SWIDTH 468 0
DWIDTH 5 0
BBX 3 5 1 0
BITMAP
C0
E0
E0
A0
60
ENDCHAR
STARTCHAR 00F9
ENCODING 249
SWIDTH 468 0
DWIDTH 5 0
BBX 4 5 1 3
BITMAP
10
90
90
90
E0
ENDCHAR
STARTCHAR 00FA
ENCODING 250
SWIDTH 468 0
DWIDTH 5 0
BBX 4 5 1 3
BITMAP
10
90
90
90
E0
ENDCHAR
STARTCHAR 00FB
ENCODING 251
SWIDTH 468 0
DWIDTH 5 0
BBX 4 8 1 0
BITMAP
40
00
00
10
90
90
90
E0
ENDCHAR
STARTCHAR 00FC
ENCODING 252
SWIDTH 468 0
DWIDTH 5 0
BBX 4 8 1 0
BITMAP
A0
00
00
10
90
90
90
E0
ENDCHAR
STARTCHAR 00FD
ENCODING 253
SWIDTH 375 0
DWIDTH 4 0
BBX 4 11 0 -3
BITMAP
20
00
00
80
90
60
60
20
40
40
80
ENDCHAR
STARTCHAR 00FE
ENCODING 254
SWIDTH 468 0
DWIDTH 5 0
BBX 4 9 1 -2
BITMAP
80
E0
90
90
90
E0
80
80
80
ENDCHAR
STARTCHAR 00FF
ENCODING 255
SWIDTH 375 0
DWIDTH 4 0
BBX 4 11 0 -3
BITMAP
60
00
00
80
90
60
60
20
40
40
80
ENDCHAR
STARTCHAR 012E
ENCODING 302
SWIDTH 187 0
DWIDTH 2 0
BBX 1 9 0 -1
BITMAP
80
80
80
80
80
80
80
80
80
ENDCHAR
STARTCHAR 0150
ENCODING 336
SWIDTH 562 0
DWIDTH 6 0
BBX 4 8 1 2
BITMAP
F0
90
90
90
90
90
90
F0
ENDCHAR
STARTCHAR 0151
ENCODING 337
SWIDTH 468 0
DWIDTH 5 0
BBX 3 8 1 0
BITMAP
40
00
00
E0
A0
A0
A0
E0
ENDCHAR
STARTCHAR 0152
ENCODING 338
SWIDTH 843 0
DWIDTH 9 0
BBX 8 8 1 0
BITMAP
EF
90
90
8C
90
90
90
EF
ENDCHAR
STARTCHAR 0153
ENCODING 339
SWIDTH 750 0
DWIDTH 8 0
BBX 7 5 1 0
BITMAP
EC
92
9E
90
EE
ENDCHAR
STARTCHAR 0160
ENCODING 352
SWIDTH 468 0
DWIDTH 5 0
BBX 5 11 0 0
BITMAP
50
20
00
70
80
80
40
30
08
88
70
ENDCHAR
STARTCHAR 0161
ENCODING 353
SWIDTH 375 0
DWIDTH 4 0
BBX 3 8 1 0
BITMAP
40
80
00
C0
C0
60
20
C0
ENDCHAR
STARTCHAR 0178
ENCODING 376
SWIDTH 562 0
DWIDTH 6 0
BBX 5 9 0 0
BITMAP
30
00
80
88
50
50
20
20
20
ENDCHAR
STARTCHAR 017B
ENCODING 379
SWIDTH 468 0
DWIDTH 5 0
BBX 5 10 0 0
BITMAP
20
00
F8
10
10
20
40
40
80
F8
ENDCHAR
STARTCHAR 017D
ENCODING 381
SWIDTH 468 0
DWIDTH 5 0
BBX 5 11 0 0
BITMAP
50
20
00
F8
10
10
20
40
40
80
F8
ENDCHAR
STARTCHAR 017E
ENCODING 382
SWIDTH 375 0
DWIDTH 4 0
BBX 4 8 0 0
BITMAP
20
60
00
F0
20
40
80
F0
ENDCHAR
STARTCHAR 0192
ENCODING 402
SWIDTH 375 0
DWIDTH 4 0
BBX 5 11 -1 -2
BITMAP
18
20
20
20
30
40
40
40
40
40
80
ENDCHAR
STARTCHAR 02C6
ENCODING 710
SWIDTH 281 0
DWIDTH 3 0
BBX 2 1 0 7
BITMAP
C0
ENDCHAR
STARTCHAR 02DC
ENCODING 732
SWIDTH 281 0
DWIDTH 3 0
BBX 3 1 0 7
BITMAP
E0
ENDCHAR
STARTCHAR 2013
ENCODING 8211
SWIDTH 468 0
DWIDTH 5 0
BBX 3 1 1 2
BITMAP
E0
ENDCHAR
STARTCHAR 2014
ENCODING 8212
SWIDTH 750 0
DWIDTH 8 0
BBX 7 1 1 2
BITMAP
FE
ENDCHAR
STARTCHAR 2018
ENCODING 8216
SWIDTH 187 0
DWIDTH 2 0
BBX 1 1 0 7
BITMAP
80
ENDCHAR
STARTCHAR 2019
ENCODING 8217
SWIDTH 187 0
DWIDTH 2 0
BBX 0 0 0 7
BITMAP
ENDCHAR
STARTCHAR 201A
ENCODING 8218
SWIDTH 187 0
DWIDTH 2 0
BBX 0 0 0 -1
BITMAP
ENDCHAR
STARTCHAR 201C
ENCODING 8220
SWIDTH 281 0
DWIDTH 3 0
BBX 1 1 0 7
BITMAP
80
ENDCHAR
STARTCHAR 201D
ENCODING 8221
SWIDTH 281 0
DWIDTH 3 0
BBX 1 1 2 7
BITMAP
80
ENDCHAR
STARTCHAR 201E
ENCODING 8222
SWIDTH 281 0
DWIDTH 3 0
BBX 1 1 2 -1
BITMAP
80
ENDCHAR
STARTCHAR 2020
ENCODING 8224
SWIDTH 375 0
DWIDTH 4 0
BBX 4 6 0 1
BITMAP
40
40
F0
40
40
40
ENDCHAR
STARTCHAR 2021
ENCODING 8225
SWIDTH 468 0
DWIDTH 5 0
BBX 4 8 0 0
BITMAP
20
20
20
F0
20
F0
20
20
ENDCHAR
STARTCHAR 2022
ENCODING 8226
SWIDTH 281 0
DWIDTH 3 0
BBX 2 2 1 2
BITMAP
C0
C0
ENDCHAR
STARTCHAR 2026
ENCODING 8230
SWIDTH 562 0
DWIDTH 6 0
BBX 5 1 0 0
BITMAP
A8
ENDCHAR
STARTCHAR 2030
ENCODING 8240
SWIDTH 1031 0
DWIDTH 11 0
BBX 11 8 0 0
BITMAP
6000
A400
A800
6800
1660
19A0
29A0
4660
ENDCHAR
STARTCHAR 2039
ENCODING 8249
SWIDTH 187 0
DWIDTH 2 0
BBX 2 4 0 1
BITMAP
40
80
80
40
ENDCHAR
STARTCHAR 203A
ENCODING 8250
SWIDTH 187 0
DWIDTH 2 0
BBX 2 3 0 2
BITMAP
40
40
80
ENDCHAR
STARTCHAR 2070
ENCODING 8304
SWIDTH 375 0
DWIDTH 4 0
BBX 2 4 1 4
BITMAP
C0
C0
C0
C0
ENDCHAR
STARTCHAR 20AC
ENCODING 8364
SWIDTH 562 0
DWIDTH 6 0
BBX 6 8 0 0
BITMAP
38
44
40
F0
40
F0
44
38
ENDCHAR
STARTCHAR 2122
ENCODING 8482
SWIDTH 656 0
DWIDTH 7 0
BBX 6 4 0 5
BITMAP
F4
54
6C
64
ENDCHAR
ENDFONT
